<svg version="1.1" id="Layer_1" xmlns="http://www.w3.org/2000/svg" xmlns:xlink="http://www.w3.org/1999/xlink" x="0px" y="0px"
	 viewBox="-627 389 24 24" style="enable-background:new -627 389 24 24;" xml:space="preserve">
<style type="text/css">
	.st0{fill:none;}
	.st1{fill:#FFFFFF;}
</style>
<path class="st0" d="M-627,389h24v24h-24V389z"/>
<path class="st0" d="M-627,389h24v24h-24V389z"/>
<path class="st1" d="M-604,397c0,1.1-0.9,2-2,2c-0.2,0-0.3,0-0.5-0.1l-3.6,3.6c0,0.2,0.1,0.3,0.1,0.5c0,1.1-0.9,2-2,2s-2-0.9-2-2
	c0-0.2,0-0.4,0.1-0.5l-2.5-2.6c-0.2,0.1-0.3,0.1-0.5,0.1s-0.4,0-0.5-0.1l-4.5,4.6c0,0.2,0.1,0.3,0.1,0.5c0,1.1-0.9,2-2,2s-2-0.9-2-2
	s0.9-2,2-2c0.2,0,0.3,0,0.5,0.1l4.6-4.6c0-0.2-0.1-0.3-0.1-0.5c0-1.1,0.9-2,2-2s2,0.9,2,2c0,0.2,0,0.4-0.1,0.5l2.5,2.6
	c0.2-0.1,0.3-0.1,0.5-0.1s0.4,0,0.5,0.1l3.5-3.6c0-0.2-0.1-0.3-0.1-0.5c0-1.1,0.9-2,2-2S-604,395.9-604,397z"/>
</svg>
